<svg width="32" height="32" viewBox="0 0 32 32" fill="none" xmlns="http://www.w3.org/2000/svg">
<path d="M3.37327 19.6932C3.08973 21.5519 4.35737 22.842 5.90945 23.4849C11.8598 25.9499 20.1403 25.9499 26.0906 23.4849C27.6427 22.842 28.9104 21.5519 28.6268 19.6932C28.4526 18.5509 27.5909 17.5997 26.9526 16.6709C26.1164 15.4393 26.0333 14.0961 26.0332 12.667C26.0332 7.14414 21.5412 2.66699 16 2.66699C10.4589 2.66699 5.96687 7.14414 5.96687 12.667C5.96675 14.0961 5.88367 15.4393 5.04752 16.6709C4.40916 17.5997 3.54752 18.5509 3.37327 19.6932Z" stroke="#2D7EAC" stroke-width="1.5" stroke-linecap="round" stroke-linejoin="round"/>
<path d="M10.6666 25.334C11.2779 27.6343 13.434 29.334 16 29.334C18.5659 29.334 20.722 27.6343 21.3333 25.334" stroke="#2D7EAC" stroke-width="1.5" stroke-linecap="round" stroke-linejoin="round"/>
</svg>
