<svg width="49" height="44" viewBox="0 0 49 44" fill="none" xmlns="http://www.w3.org/2000/svg">
<path d="M16.1667 9.16667C16.1667 5.89067 16.1667 4.25033 16.953 3.07433C17.2936 2.56456 17.7312 2.1269 18.241 1.78633C19.417 1 21.0573 1 24.3333 1C27.6093 1 29.2497 1 30.4257 1.78633C30.9354 2.1269 31.3731 2.56456 31.7137 3.07433C32.5 4.25033 32.5 5.89067 32.5 9.16667M47.6667 26.6667V25.5C47.6667 17.8 47.6667 13.95 45.275 11.5583C42.8833 9.16667 39.0333 9.16667 31.3333 9.16667H17.3333C9.63333 9.16667 5.78333 9.16667 3.39167 11.5583C1 13.95 1 17.8 1 25.5V26.6667C1 34.3667 1 38.2167 3.39167 40.6083C5.78333 43 9.63333 43 17.3333 43H31.3333C39.0333 43 42.8833 43 45.275 40.6083C47.6667 38.2167 47.6667 34.3667 47.6667 26.6667Z" stroke="#334155" stroke-width="2" stroke-linecap="round" stroke-linejoin="round"/>
<path d="M1 19.6667C1 19.6667 7.14133 29 24.3333 29C41.5253 29 47.6667 19.6667 47.6667 19.6667" stroke="#334155" stroke-width="2" stroke-linejoin="round"/>
<path d="M24.3333 22H24.3543" stroke="#334155" stroke-width="4" stroke-linecap="round" stroke-linejoin="round"/>
</svg>
