<svg width="20" height="20" viewBox="0 0 20 20" fill="none" xmlns="http://www.w3.org/2000/svg">
<path d="M12.7 18.5583H12.5917C8.89167 18.5583 7.10833 17.1 6.8 13.8333C6.76667 13.4917 7.01667 13.1833 7.36667 13.15C7.7 13.1166 8.01667 13.375 8.05 13.7167C8.29167 16.3333 9.525 17.3083 12.6 17.3083H12.7083C16.1 17.3083 17.3 16.1083 17.3 12.7167V7.28332C17.3 3.89165 16.1 2.69165 12.7083 2.69165H12.6C9.50833 2.69165 8.275 3.68332 8.05 6.34998C8.00833 6.69165 7.71667 6.94998 7.36667 6.91665C7.01667 6.89165 6.76667 6.58332 6.79167 6.24165C7.075 2.92498 8.86667 1.44165 12.5917 1.44165H12.7C16.7917 1.44165 18.5417 3.19165 18.5417 7.28332V12.7167C18.5417 16.8083 16.7917 18.5583 12.7 18.5583Z" fill="#FF0000"/>
<path d="M3.01667 9.875H12.5001C12.5302 9.87502 12.5614 9.88746 12.587 9.91309C12.6126 9.93872 12.6251 9.96987 12.6251 10C12.6251 10.0301 12.6126 10.0613 12.587 10.0869C12.5614 10.1125 12.5302 10.125 12.5001 10.125H3.01667C2.98652 10.125 2.9554 10.1126 2.92975 10.0869C2.90411 10.0613 2.89167 10.0301 2.89167 10C2.89167 9.96985 2.90411 9.93873 2.92975 9.91309C2.9554 9.88744 2.98652 9.875 3.01667 9.875Z" fill="#FF0000" stroke="#FF0000"/>
<path d="M4.87546 7.08545C4.91111 7.08556 4.94191 7.09917 4.96335 7.12061C4.9847 7.14212 4.99753 7.17281 4.99753 7.2085C4.99749 7.2442 4.98475 7.27489 4.96335 7.29639L2.61276 9.646L2.25924 10.0005L2.61276 10.354L4.96335 12.7036C4.98476 12.7251 4.99748 12.7558 4.99753 12.7915C4.99753 12.8272 4.98468 12.8579 4.96335 12.8794L4.95749 12.8862L4.95163 12.8921C4.94836 12.8956 4.94104 12.9022 4.92721 12.9077C4.91273 12.9135 4.89421 12.9164 4.87546 12.9165C4.85777 12.9165 4.8419 12.9131 4.82858 12.9077C4.81574 12.9025 4.80125 12.8941 4.78659 12.8794L1.99557 10.0884C1.97414 10.0669 1.96053 10.0361 1.96042 10.0005C1.96042 9.96464 1.97405 9.93315 1.99557 9.91162L4.78659 7.12061C4.80812 7.09908 4.8396 7.08545 4.87546 7.08545Z" fill="#FF0000" stroke="#FF0000"/>
</svg>
