<svg width="49" height="49" viewBox="0 0 49 49" fill="none" xmlns="http://www.w3.org/2000/svg">
<path d="M17.6915 8.952C20.6479 3.65067 22.1249 1 24.3345 1C26.5442 1 28.0212 3.65067 30.9775 8.952L31.7429 10.324C32.5829 11.8313 33.0029 12.585 33.6562 13.082C34.3095 13.579 35.1262 13.7633 36.7595 14.132L38.2435 14.468C43.9835 15.7677 46.8512 16.4163 47.5349 18.612C48.2162 20.8053 46.2609 23.0943 42.3479 27.67L41.3352 28.853C40.2245 30.1527 39.6669 30.8037 39.4172 31.6063C39.1675 32.4113 39.2515 33.2793 39.4195 35.013L39.5735 36.5927C40.1639 42.699 40.4602 45.751 38.6729 47.1067C36.8855 48.4623 34.1975 47.2257 28.8262 44.7523L27.4332 44.113C25.9072 43.4083 25.1442 43.0583 24.3345 43.0583C23.5249 43.0583 22.7619 43.4083 21.2359 44.113L19.8452 44.7523C14.4715 47.2257 11.7835 48.4623 9.99854 47.109C8.20887 45.751 8.50521 42.699 9.09554 36.5927L9.24954 35.0153C9.41754 33.2793 9.50154 32.4113 9.24954 31.6087C9.00221 30.8037 8.44454 30.1527 7.33388 28.8553L6.32121 27.67C2.40821 23.0967 0.452875 20.8077 1.13421 18.612C1.81554 16.4163 4.68787 15.7653 10.4279 14.468L11.9119 14.132C13.5429 13.7633 14.3572 13.579 15.0129 13.082C15.6685 12.585 16.0862 11.8313 16.9262 10.324L17.6915 8.952Z" stroke="#334155" stroke-width="2"/>
</svg>