<svg width="49" height="50" viewBox="0 0 49 50" fill="none" xmlns="http://www.w3.org/2000/svg">
<path d="M12.6667 38.3287C7.59167 38.3007 4.843 38.0767 3.051 36.2823C1 34.2337 1 30.932 1 24.3333V15C1 8.40133 1 5.09967 3.051 3.051C5.09967 1 8.40133 1 15 1H33.6667C40.2653 1 43.567 1 45.6157 3.051C47.6667 5.09967 47.6667 8.40133 47.6667 15V24.3333C47.6667 30.932 47.6667 34.2337 45.6157 36.2823C43.9123 37.9857 41.348 38.275 36.7467 38.324L34.8333 38.3287" stroke="#334155" stroke-width="2"/>
<path d="M17.3334 10.3333H31.3334M12.6667 18.5H36" stroke="#334155" stroke-width="2" stroke-linecap="round"/>
<path d="M21.7433 28.8717C22.4655 28.2554 23.3839 27.9168 24.3333 27.9168C25.2828 27.9168 26.2011 28.2554 26.9233 28.8717C27.5603 29.4177 28.356 29.7467 29.1913 29.8143C30.1372 29.889 31.0256 30.2983 31.697 30.9688C32.3683 31.6393 32.7788 32.5272 32.8546 33.473C32.92 34.313 33.249 35.1063 33.7926 35.7457C34.4077 36.4676 34.7455 37.385 34.7455 38.3333C34.7455 39.2817 34.4077 40.1991 33.7926 40.921C33.2463 41.5598 32.917 42.3556 32.8523 43.1937C32.7771 44.1396 32.3672 45.0277 31.6962 45.6986C31.0253 46.3696 30.1372 46.7794 29.1913 46.8547C28.3541 46.9199 27.5591 47.2491 26.921 47.795C26.1989 48.4107 25.2811 48.7489 24.3321 48.7489C23.3832 48.7489 22.4654 48.4107 21.7433 47.795C21.1055 47.2483 20.3105 46.9182 19.473 46.8523C18.5275 46.7772 17.6397 46.3676 16.9688 45.6972C16.2979 45.0267 15.8878 44.1391 15.812 43.1937C15.7472 42.3556 15.418 41.5598 14.8716 40.921C14.2566 40.1991 13.9188 39.2817 13.9188 38.3333C13.9188 37.385 14.2566 36.4676 14.8716 35.7457C15.418 35.1069 15.7472 34.3111 15.812 33.473C15.8878 32.5272 16.2983 31.6393 16.9697 30.9688C17.641 30.2983 18.5294 29.889 19.4753 29.8143C20.3106 29.7467 21.104 29.4177 21.7433 28.8717Z" stroke="#334155" stroke-width="2"/>
<path d="M20.8333 38.8L22.833 40.6667L27.8333 36" stroke="#334155" stroke-width="2" stroke-linecap="round" stroke-linejoin="round"/>
</svg>