<svg width="44" height="44" viewBox="0 0 44 44" fill="none" xmlns="http://www.w3.org/2000/svg">
<path d="M17.3333 10.3333L16.1293 13.586C14.552 17.8513 13.7633 19.984 12.207 21.5403C10.6507 23.0967 8.518 23.8853 4.25267 25.4627L1 26.6667L4.25267 27.8707C8.518 29.448 10.6507 30.239 12.207 31.793C13.7633 33.347 14.552 35.482 16.1293 39.7473L17.3333 43L18.5373 39.7473C20.1147 35.482 20.9057 33.3493 22.4597 31.793C24.0137 30.2367 26.1487 29.448 30.414 27.8707L33.6667 26.6667L30.414 25.4627C26.1487 23.8853 24.016 23.0967 22.4597 21.5403C20.9033 19.984 20.1147 17.8513 18.5373 13.586L17.3333 10.3333ZM36 1L35.4843 2.393C34.8077 4.22233 34.4693 5.137 33.8043 5.802C33.137 6.46933 32.2223 6.80767 30.393 7.482L29 8L30.3953 8.51567C32.2223 9.19233 33.137 9.53067 33.802 10.1957C34.4693 10.863 34.8077 11.7777 35.482 13.607L36 15L36.5157 13.607C37.1923 11.7777 37.5307 10.863 38.1957 10.198C38.863 9.53067 39.7777 9.19233 41.607 8.518L43 8L41.6047 7.48433C39.7777 6.80767 38.863 6.46933 38.198 5.80433C37.5307 5.137 37.1923 4.22233 36.518 2.393L36 1Z" stroke="#334155" stroke-width="2" stroke-linejoin="round"/>
</svg>
