<svg width="24" height="24" viewBox="0 0 24 24" fill="none" xmlns="http://www.w3.org/2000/svg">
<path d="M19.77 13.75H15.73C13.72 13.75 12.75 12.82 12.75 10.9V4.1C12.75 2.18 13.73 1.25 15.73 1.25H19.77C21.78 1.25 22.75 2.18 22.75 4.1V10.9C22.75 12.82 21.77 13.75 19.77 13.75ZM15.73 2.75C14.46 2.75 14.25 3.09 14.25 4.1V10.9C14.25 11.91 14.46 12.25 15.73 12.25H19.77C21.04 12.25 21.25 11.91 21.25 10.9V4.1C21.25 3.09 21.04 2.75 19.77 2.75H15.73Z" fill="#595959
"/>
<mask id="path-2-inside-1_248_1688" fill="#595959">
<path d="M19.77 22.75H15.73C13.72 22.75 12.75 21.82 12.75 19.9V18.1C12.75 16.18 13.73 15.25 15.73 15.25H19.77C21.78 15.25 22.75 16.18 22.75 18.1V19.9C22.75 21.82 21.77 22.75 19.77 22.75ZM15.73 16.75C14.46 16.75 14.25 17.09 14.25 18.1V19.9C14.25 20.91 14.46 21.25 15.73 21.25H19.77C21.04 21.25 21.25 20.91 21.25 19.9V18.1C21.25 17.09 21.04 16.75 19.77 16.75H15.73Z"/>
</mask>
<path d="M19.77 22.75H15.73C13.72 22.75 12.75 21.82 12.75 19.9V18.1C12.75 16.18 13.73 15.25 15.73 15.25H19.77C21.78 15.25 22.75 16.18 22.75 18.1V19.9C22.75 21.82 21.77 22.75 19.77 22.75ZM15.73 16.75C14.46 16.75 14.25 17.09 14.25 18.1V19.9C14.25 20.91 14.46 21.25 15.73 21.25H19.77C21.04 21.25 21.25 20.91 21.25 19.9V18.1C21.25 17.09 21.04 16.75 19.77 16.75H15.73Z" fill="#595959"/>
<path d="M19.77 22.75V20.59H15.73V22.75V24.91H19.77V22.75ZM15.73 22.75V20.59C15.017 20.59 14.9141 20.4217 14.9797 20.4844C15.0639 20.5651 14.91 20.5212 14.91 19.9H12.75H10.59C10.59 21.1988 10.9211 22.5799 11.9928 23.6056C13.0459 24.6133 14.433 24.91 15.73 24.91V22.75ZM12.75 19.9H14.91V18.1H12.75H10.59V19.9H12.75ZM12.75 18.1H14.91C14.91 17.4846 15.0634 17.4392 14.9814 17.5174C14.919 17.577 15.0248 17.41 15.73 17.41V15.25V13.09C14.4352 13.09 13.051 13.388 11.9986 14.3926C10.9266 15.4158 10.59 16.7954 10.59 18.1H12.75ZM15.73 15.25V17.41H19.77V15.25V13.09H15.73V15.25ZM19.77 15.25V17.41C20.483 17.41 20.5859 17.5783 20.5204 17.5156C20.4361 17.4349 20.59 17.4788 20.59 18.1H22.75H24.91C24.91 16.8012 24.5789 15.4201 23.5072 14.3944C22.4541 13.3867 21.067 13.09 19.77 13.09V15.25ZM22.75 18.1H20.59V19.9H22.75H24.91V18.1H22.75ZM22.75 19.9H20.59C20.59 20.5154 20.4366 20.5608 20.5186 20.4826C20.581 20.423 20.4752 20.59 19.77 20.59V22.75V24.91C21.0648 24.91 22.449 24.612 23.5014 23.6074C24.5734 22.5842 24.91 21.2046 24.91 19.9H22.75ZM15.73 16.75V14.59C15.1014 14.59 13.8817 14.6236 12.9864 15.5189C12.0749 16.4304 12.09 17.6545 12.09 18.1H14.25H16.41C16.41 17.894 16.4238 17.8764 16.4089 17.9418C16.3871 18.0376 16.3036 18.3111 16.0411 18.5736C15.784 18.8307 15.5272 18.9048 15.4677 18.9191C15.4276 18.9287 15.4859 18.91 15.73 18.91V16.75ZM14.25 18.1H12.09V19.9H14.25H16.41V18.1H14.25ZM14.25 19.9H12.09C12.09 20.3455 12.0749 21.5696 12.9864 22.4811C13.8817 23.3764 15.1014 23.41 15.73 23.41V21.25V19.09C15.4859 19.09 15.4276 19.0713 15.4677 19.0809C15.5272 19.0952 15.784 19.1693 16.0411 19.4264C16.3036 19.6889 16.3871 19.9624 16.4089 20.0582C16.4238 20.1236 16.41 20.106 16.41 19.9H14.25ZM15.73 21.25V23.41H19.77V21.25V19.09H15.73V21.25ZM19.77 21.25V23.41C20.3986 23.41 21.6183 23.3764 22.5136 22.4811C23.4251 21.5696 23.41 20.3455 23.41 19.9H21.25H19.09C19.09 20.106 19.0762 20.1236 19.0911 20.0582C19.1129 19.9624 19.1964 19.6889 19.4589 19.4264C19.716 19.1693 19.9728 19.0952 20.0323 19.0809C20.0724 19.0713 20.0141 19.09 19.77 19.09V21.25ZM21.25 19.9H23.41V18.1H21.25H19.09V19.9H21.25ZM21.25 18.1H23.41C23.41 17.6545 23.4251 16.4304 22.5136 15.5189C21.6183 14.6236 20.3986 14.59 19.77 14.59V16.75V18.91C20.0141 18.91 20.0724 18.9287 20.0323 18.9191C19.9728 18.9048 19.716 18.8307 19.4589 18.5736C19.1964 18.3111 19.1129 18.0376 19.0911 17.9418C19.0762 17.8764 19.09 17.894 19.09 18.1H21.25ZM19.77 16.75V14.59H15.73V16.75V18.91H19.77V16.75Z" fill="#595959" mask="url(#path-2-inside-1_248_1688)"/>
<mask id="path-4-inside-2_248_1688" fill="#595959">
<path d="M8.26981 22.75H4.22981C2.21981 22.75 1.24981 21.82 1.24981 19.9V13.1C1.24981 11.18 2.22981 10.25 4.22981 10.25H8.26981C10.2798 10.25 11.2498 11.18 11.2498 13.1V19.9C11.2498 21.82 10.2698 22.75 8.26981 22.75ZM4.22981 11.75C2.95981 11.75 2.74981 12.09 2.74981 13.1V19.9C2.74981 20.91 2.95981 21.25 4.22981 21.25H8.26981C9.53981 21.25 9.74981 20.91 9.74981 19.9V13.1C9.74981 12.09 9.53981 11.75 8.26981 11.75H4.22981Z"/>
</mask>
<path d="M8.26981 22.75H4.22981C2.21981 22.75 1.24981 21.82 1.24981 19.9V13.1C1.24981 11.18 2.22981 10.25 4.22981 10.25H8.26981C10.2798 10.25 11.2498 11.18 11.2498 13.1V19.9C11.2498 21.82 10.2698 22.75 8.26981 22.75ZM4.22981 11.75C2.95981 11.75 2.74981 12.09 2.74981 13.1V19.9C2.74981 20.91 2.95981 21.25 4.22981 21.25H8.26981C9.53981 21.25 9.74981 20.91 9.74981 19.9V13.1C9.74981 12.09 9.53981 11.75 8.26981 11.75H4.22981Z" fill="#595959"/>
<path d="M8.26981 22.75V20.59H4.22981V22.75V24.91H8.26981V22.75ZM4.22981 22.75V20.59C3.51684 20.59 3.41392 20.4217 3.47946 20.4844C3.56372 20.5651 3.40981 20.5212 3.40981 19.9H1.24981H-0.910195C-0.910195 21.1988 -0.579107 22.5799 0.492656 23.6056C1.54569 24.6133 2.93277 24.91 4.22981 24.91V22.75ZM1.24981 19.9H3.40981V13.1H1.24981H-0.910195V19.9H1.24981ZM1.24981 13.1H3.40981C3.40981 12.4846 3.56321 12.4392 3.48123 12.5174C3.41882 12.577 3.52457 12.41 4.22981 12.41V10.25V8.09C2.93504 8.09 1.55079 8.38797 0.498378 9.39255C-0.573603 10.4158 -0.910195 11.7954 -0.910195 13.1H1.24981ZM4.22981 10.25V12.41H8.26981V10.25V8.09H4.22981V10.25ZM8.26981 10.25V12.41C8.98277 12.41 9.08569 12.5783 9.02016 12.5156C8.93589 12.4349 9.08981 12.4788 9.08981 13.1H11.2498H13.4098C13.4098 11.8012 13.0787 10.4201 12.007 9.39444C10.9539 8.38673 9.56684 8.09 8.26981 8.09V10.25ZM11.2498 13.1H9.08981V19.9H11.2498H13.4098V13.1H11.2498ZM11.2498 19.9H9.08981C9.08981 20.5154 8.9364 20.5608 9.01838 20.4826C9.08079 20.423 8.97504 20.59 8.26981 20.59V22.75V24.91C9.56458 24.91 10.9488 24.612 12.0012 23.6074C13.0732 22.5842 13.4098 21.2046 13.4098 19.9H11.2498ZM4.22981 11.75V9.59C3.60117 9.59 2.3815 9.62361 1.4862 10.5189C0.574707 11.4304 0.589805 12.6545 0.589805 13.1H2.74981H4.90981C4.90981 12.894 4.92357 12.8764 4.90873 12.9418C4.88693 13.0376 4.8034 13.3111 4.54091 13.5736C4.28379 13.8307 4.02705 13.9048 3.96755 13.9191C3.92742 13.9287 3.98567 13.91 4.22981 13.91V11.75ZM2.74981 13.1H0.589805V19.9H2.74981H4.90981V13.1H2.74981ZM2.74981 19.9H0.589805C0.589805 20.3455 0.574707 21.5696 1.4862 22.4811C2.3815 23.3764 3.60117 23.41 4.22981 23.41V21.25V19.09C3.98567 19.09 3.92742 19.0713 3.96755 19.0809C4.02705 19.0952 4.28379 19.1693 4.54091 19.4264C4.8034 19.6889 4.88693 19.9624 4.90873 20.0582C4.92357 20.1236 4.90981 20.106 4.90981 19.9H2.74981ZM4.22981 21.25V23.41H8.26981V21.25V19.09H4.22981V21.25ZM8.26981 21.25V23.41C8.89845 23.41 10.1181 23.3764 11.0134 22.4811C11.9249 21.5696 11.9098 20.3455 11.9098 19.9H9.74981H7.58981C7.58981 20.106 7.57604 20.1236 7.59088 20.0582C7.61268 19.9624 7.69622 19.6889 7.9587 19.4264C8.21582 19.1693 8.47257 19.0952 8.53206 19.0809C8.57219 19.0713 8.51394 19.09 8.26981 19.09V21.25ZM9.74981 19.9H11.9098V13.1H9.74981H7.58981V19.9H9.74981ZM9.74981 13.1H11.9098C11.9098 12.6545 11.9249 11.4304 11.0134 10.5189C10.1181 9.62361 8.89845 9.59 8.26981 9.59V11.75V13.91C8.51394 13.91 8.57219 13.9287 8.53206 13.9191C8.47257 13.9048 8.21582 13.8307 7.9587 13.5736C7.69622 13.3111 7.61268 13.0376 7.59088 12.9418C7.57604 12.8764 7.58981 12.894 7.58981 13.1H9.74981ZM8.26981 11.75V9.59H4.22981V11.75V13.91H8.26981V11.75Z" fill="#595959" mask="url(#path-4-inside-2_248_1688)"/>
<mask id="path-6-inside-3_248_1688" fill="#595959">
<path d="M8.26981 8.75H4.22981C2.21981 8.75 1.24981 7.82 1.24981 5.9V4.1C1.24981 2.18 2.22981 1.25 4.22981 1.25H8.26981C10.2798 1.25 11.2498 2.18 11.2498 4.1V5.9C11.2498 7.82 10.2698 8.75 8.26981 8.75ZM4.22981 2.75C2.95981 2.75 2.74981 3.09 2.74981 4.1V5.9C2.74981 6.91 2.95981 7.25 4.22981 7.25H8.26981C9.53981 7.25 9.74981 6.91 9.74981 5.9V4.1C9.74981 3.09 9.53981 2.75 8.26981 2.75H4.22981Z"/>
</mask>
<path d="M8.26981 8.75H4.22981C2.21981 8.75 1.24981 7.82 1.24981 5.9V4.1C1.24981 2.18 2.22981 1.25 4.22981 1.25H8.26981C10.2798 1.25 11.2498 2.18 11.2498 4.1V5.9C11.2498 7.82 10.2698 8.75 8.26981 8.75ZM4.22981 2.75C2.95981 2.75 2.74981 3.09 2.74981 4.1V5.9C2.74981 6.91 2.95981 7.25 4.22981 7.25H8.26981C9.53981 7.25 9.74981 6.91 9.74981 5.9V4.1C9.74981 3.09 9.53981 2.75 8.26981 2.75H4.22981Z" fill="#595959"/>
<path d="M8.26981 8.75V6.59H4.22981V8.75V10.91H8.26981V8.75ZM4.22981 8.75V6.59C3.51684 6.59 3.41392 6.42173 3.47946 6.48444C3.56372 6.56507 3.40981 6.52115 3.40981 5.9H1.24981H-0.910195C-0.910195 7.19885 -0.579107 8.57993 0.492656 9.60556C1.54569 10.6133 2.93277 10.91 4.22981 10.91V8.75ZM1.24981 5.9H3.40981V4.1H1.24981H-0.910195V5.9H1.24981ZM1.24981 4.1H3.40981C3.40981 3.48461 3.56321 3.43919 3.48123 3.51745C3.41882 3.57703 3.52457 3.41 4.22981 3.41V1.25V-0.91C2.93504 -0.91 1.55079 -0.612026 0.498378 0.392552C-0.573603 1.41581 -0.910195 2.79539 -0.910195 4.1H1.24981ZM4.22981 1.25V3.41H8.26981V1.25V-0.91H4.22981V1.25ZM8.26981 1.25V3.41C8.98277 3.41 9.08569 3.57827 9.02016 3.51556C8.93589 3.43493 9.08981 3.47885 9.08981 4.1H11.2498H13.4098C13.4098 2.80115 13.0787 1.42007 12.007 0.394437C10.9539 -0.613273 9.56684 -0.91 8.26981 -0.91V1.25ZM11.2498 4.1H9.08981V5.9H11.2498H13.4098V4.1H11.2498ZM11.2498 5.9H9.08981C9.08981 6.51539 8.9364 6.56081 9.01838 6.48255C9.08079 6.42297 8.97504 6.59 8.26981 6.59V8.75V10.91C9.56458 10.91 10.9488 10.612 12.0012 9.60745C13.0732 8.58419 13.4098 7.20461 13.4098 5.9H11.2498ZM4.22981 2.75V0.59C3.60117 0.59 2.3815 0.623607 1.4862 1.5189C0.574707 2.4304 0.589805 3.65446 0.589805 4.1H2.74981H4.90981C4.90981 3.89399 4.92357 3.87645 4.90873 3.94175C4.88693 4.03765 4.80339 4.31111 4.54091 4.5736C4.28379 4.83072 4.02704 4.9048 3.96755 4.9191C3.92742 4.92874 3.98567 4.91 4.22981 4.91V2.75ZM2.74981 4.1H0.589805V5.9H2.74981H4.90981V4.1H2.74981ZM2.74981 5.9H0.589805C0.589805 6.34554 0.574707 7.5696 1.4862 8.4811C2.3815 9.37639 3.60117 9.41 4.22981 9.41V7.25V5.09C3.98567 5.09 3.92742 5.07126 3.96755 5.0809C4.02704 5.0952 4.28379 5.16928 4.54091 5.4264C4.80339 5.68889 4.88693 5.96235 4.90873 6.05825C4.92357 6.12355 4.90981 6.10601 4.90981 5.9H2.74981ZM4.22981 7.25V9.41H8.26981V7.25V5.09H4.22981V7.25ZM8.26981 7.25V9.41C8.89844 9.41 10.1181 9.37639 11.0134 8.4811C11.9249 7.5696 11.9098 6.34554 11.9098 5.9H9.74981H7.58981C7.58981 6.10601 7.57604 6.12355 7.59088 6.05825C7.61268 5.96235 7.69622 5.68889 7.9587 5.4264C8.21582 5.16928 8.47257 5.0952 8.53206 5.0809C8.57219 5.07126 8.51394 5.09 8.26981 5.09V7.25ZM9.74981 5.9H11.9098V4.1H9.74981H7.58981V5.9H9.74981ZM9.74981 4.1H11.9098C11.9098 3.65446 11.9249 2.4304 11.0134 1.5189C10.1181 0.623607 8.89844 0.59 8.26981 0.59V2.75V4.91C8.51394 4.91 8.57219 4.92874 8.53206 4.9191C8.47257 4.9048 8.21582 4.83072 7.9587 4.5736C7.69622 4.31111 7.61268 4.03765 7.59088 3.94175C7.57604 3.87645 7.58981 3.89399 7.58981 4.1H9.74981ZM8.26981 2.75V0.59H4.22981V2.75V4.91H8.26981V2.75Z" fill="#595959" mask="url(#path-6-inside-3_248_1688)"/>
</svg>
