<svg width="24" height="24" viewBox="0 0 24 24" fill="none" xmlns="http://www.w3.org/2000/svg">
<path d="M21.9597 10.9707C22.0133 11.8009 22.0133 12.6607 21.9597 13.4909C21.6855 17.7332 18.3535 21.1125 14.1705 21.3905C12.7434 21.4854 11.2535 21.4852 9.8293 21.3905C9.33887 21.3579 8.80431 21.2409 8.34391 21.0513C7.83167 20.8403 7.57551 20.7348 7.44534 20.7508C7.31517 20.7668 7.12631 20.9061 6.74858 21.1846C6.08259 21.6757 5.24357 22.0285 3.99933 21.9982C3.37016 21.9829 3.05558 21.9752 2.91475 21.7351C2.77391 21.495 2.94931 21.1626 3.30012 20.4978C3.78665 19.5758 4.09491 18.5203 3.62781 17.6746C2.82334 16.4666 2.14 15.036 2.04014 13.4909C1.98649 12.6607 1.98649 11.8009 2.04014 10.9707C2.31431 6.72838 5.64629 3.34913 9.8293 3.07107C11.0318 2.99114 11.2811 2.97856 12.4999 3.03368" stroke="#595959" stroke-width="1.2" stroke-linecap="round" stroke-linejoin="round"/>
<path d="M8.50029 15H15.5003M8.50029 10H12.0003" stroke="#595959" stroke-width="1.2" stroke-linecap="round" stroke-linejoin="round"/>
<path d="M22.0001 5.5C22.0001 7.433 20.4331 9 18.5001 9C16.5671 9 15.0001 7.433 15.0001 5.5C15.0001 3.567 16.5671 2 18.5001 2C20.4331 2 22.0001 3.567 22.0001 5.5Z" stroke="#595959" stroke-width="1.2"/>
</svg>
