<svg width="24" height="24" viewBox="0 0 24 24" fill="none" xmlns="http://www.w3.org/2000/svg">
<path d="M21.9999 11.5V6.11397C21.9999 5.32299 21.9999 4.92751 21.8058 4.51966C21.6951 4.28705 21.4429 3.97064 21.2409 3.81079C20.8867 3.53051 20.5911 3.46281 19.9999 3.3274C19.0802 3.11675 18.0658 3 16.9999 3C15.0828 3 13.3324 3.37764 11.9999 4C10.6674 4.62236 8.91697 5 6.9999 5C5.93398 5 4.91959 4.88325 3.9999 4.6726C3.03993 4.45273 1.9999 5.12914 1.9999 6.11397V16.886C1.9999 17.677 1.9999 18.0725 2.19402 18.4803C2.30473 18.7129 2.55687 19.0294 2.75889 19.1892C3.1131 19.4695 3.4087 19.5372 3.9999 19.6726C4.91959 19.8833 5.93398 20 6.9999 20C8.46874 20 9.83974 19.7783 10.9999 19.3947" stroke="#595959" stroke-width="1.2" stroke-linecap="round"/>
<path d="M13.9999 19C13.9999 19 14.9999 19 15.9999 21C15.9999 21 19.1764 16 21.9999 15" stroke="#595959" stroke-width="1.2" stroke-linecap="round" stroke-linejoin="round"/>
<path d="M14.4999 11.5C14.4999 12.8807 13.3806 14 11.9999 14C10.6192 14 9.4999 12.8807 9.4999 11.5C9.4999 10.1193 10.6192 9 11.9999 9C13.3806 9 14.4999 10.1193 14.4999 11.5Z" stroke="#595959" stroke-width="1.2"/>
<path d="M5.50029 12.5L5.50029 12.509" stroke="#595959" stroke-width="1.2" stroke-linecap="round" stroke-linejoin="round"/>
<path d="M18.4999 10.4922L18.4999 10.5012" stroke="#595959" stroke-width="1.2" stroke-linecap="round" stroke-linejoin="round"/>
</svg>
