<svg width="24" height="24" viewBox="0 0 24 24" fill="none" xmlns="http://www.w3.org/2000/svg">
<path d="M11.4999 14.0116C9.45328 13.9164 7.38325 14.4064 5.57748 15.4816C4.16271 16.324 0.453267 18.0441 2.71256 20.1966C3.81621 21.248 5.04539 22 6.59077 22H11.9999" stroke="#595959" stroke-width="1.2" stroke-linecap="round" stroke-linejoin="round"/>
<path d="M15.4999 6.5C15.4999 8.98528 13.4852 11 10.9999 11C8.51462 11 6.4999 8.98528 6.4999 6.5C6.4999 4.01472 8.51462 2 10.9999 2C13.4852 2 15.4999 4.01472 15.4999 6.5Z" stroke="#595959" stroke-width="1.2"/>
<path d="M17.9999 20.7143V22M17.9999 20.7143C16.8431 20.7143 15.824 20.1461 15.2262 19.2833M17.9999 20.7143C19.1567 20.7143 20.1758 20.1461 20.7736 19.2833M17.9999 14.2857C19.1568 14.2857 20.176 14.854 20.7737 15.7169M17.9999 14.2857C16.843 14.2857 15.8238 14.854 15.2261 15.7169M17.9999 14.2857V13M21.9999 14.9286L20.7737 15.7169M14.0003 20.0714L15.2262 19.2833M13.9999 14.9286L15.2261 15.7169M21.9995 20.0714L20.7736 19.2833M20.7737 15.7169C21.1272 16.2271 21.3332 16.8404 21.3332 17.5C21.3332 18.1597 21.1271 18.773 20.7736 19.2833M15.2261 15.7169C14.8726 16.2271 14.6666 16.8404 14.6666 17.5C14.6666 18.1597 14.8727 18.773 15.2262 19.2833" stroke="#595959" stroke-width="1.2" stroke-linecap="round"/>
</svg>

