<svg width="34" height="35" viewBox="0 0 34 35" fill="none" xmlns="http://www.w3.org/2000/svg">
<rect y="0.72998" width="34" height="34" rx="17" fill="#F8E6E6"/>
<path d="M18 27.73H11.5909C10.0455 27.73 8.81631 26.978 7.71266 25.9265C5.45336 23.7741 9.1628 22.054 10.5776 21.2116C12.9768 19.783 15.8425 19.3875 18.5 20.0252" stroke="#B20000" stroke-linecap="round" stroke-linejoin="round"/>
<path d="M21.5 12.23C21.5 14.7153 19.4853 16.73 17 16.73C14.5147 16.73 12.5 14.7153 12.5 12.23C12.5 9.7447 14.5147 7.72998 17 7.72998C19.4853 7.72998 21.5 9.7447 21.5 12.23Z" stroke="#B20000"/>
<path d="M21.05 21.78L25.95 26.68M27 24.23C27 22.297 25.433 20.73 23.5 20.73C21.567 20.73 20 22.297 20 24.23C20 26.163 21.567 27.73 23.5 27.73C25.433 27.73 27 26.163 27 24.23Z" stroke="#B20000" stroke-linecap="round"/>
</svg>
