<svg width="34" height="35" viewBox="0 0 34 35" fill="none" xmlns="http://www.w3.org/2000/svg">
<rect y="0.72998" width="34" height="34" rx="17" fill="#F8E6E6"/>
<path d="M24.5 11.23L23.8803 21.2551C23.7219 23.8164 23.6428 25.0971 23.0008 26.0178C22.6833 26.4731 22.2747 26.8573 21.8007 27.146C20.8421 27.73 19.559 27.73 16.9927 27.73C14.4231 27.73 13.1383 27.73 12.1791 27.1449C11.7048 26.8557 11.296 26.4708 10.9787 26.0148C10.3369 25.0926 10.2595 23.8101 10.1046 21.2451L9.5 11.23" stroke="#B20000" stroke-linecap="round"/>
<path d="M8 11.23H26M21.0557 11.23L20.3731 9.82171C19.9196 8.88624 19.6928 8.4185 19.3017 8.12679C19.215 8.06208 19.1231 8.00452 19.027 7.95468C18.5939 7.72998 18.0741 7.72998 17.0345 7.72998C15.9688 7.72998 15.436 7.72998 14.9957 7.9641C14.8981 8.01599 14.805 8.07588 14.7173 8.14315C14.3216 8.44668 14.1006 8.93153 13.6586 9.90124L13.0529 11.23" stroke="#B20000" stroke-linecap="round"/>
<path d="M14.5 22.23L14.5 16.23" stroke="#B20000" stroke-linecap="round"/>
<path d="M19.5 22.23L19.5 16.23" stroke="#B20000" stroke-linecap="round"/>
</svg>
