<svg width="34" height="35" viewBox="0 0 34 35" fill="none" xmlns="http://www.w3.org/2000/svg">
<rect y="0.72998" width="34" height="34" rx="17" fill="#6430FF" fill-opacity="0.1"/>
<path d="M21.9459 8.90303C22.5332 8.31576 22.8268 8.02213 23.1521 7.88171C23.6208 7.6794 24.1521 7.6794 24.6208 7.88171C24.946 8.02213 25.2397 8.31576 25.8269 8.90303C26.4142 9.4903 26.7079 9.78394 26.8483 10.1092C27.0506 10.5779 27.0506 11.1092 26.8483 11.5779C26.7079 11.9032 26.4142 12.1968 25.8269 12.7841L20.8054 17.8057C19.5682 19.0428 18.9496 19.6614 18.1748 20.028C17.4 20.3945 16.5294 20.4804 14.7882 20.6522L14 20.73L14.0778 19.9417C14.2496 18.2006 14.3355 17.33 14.702 16.5552C15.0685 15.7804 15.6871 15.1618 16.9243 13.9246L21.9459 8.90303Z" stroke="#6430FF" stroke-linejoin="round"/>
<path d="M11 20.73H8.75C7.7835 20.73 7 21.5135 7 22.48C7 23.4465 7.7835 24.23 8.75 24.23H18.25C19.2165 24.23 20 25.0135 20 25.98C20 26.9465 19.2165 27.73 18.25 27.73H16" stroke="#6430FF" stroke-linecap="round" stroke-linejoin="round"/>
</svg>
