<svg width="25" height="25" viewBox="0 0 25 25" fill="none" xmlns="http://www.w3.org/2000/svg">
<path d="M13.6716 3.72998H9.5C7.61438 3.72998 6.67157 3.72998 6.08579 4.31577C5.5 4.90155 5.5 5.84436 5.5 7.72998V17.73C5.5 19.6156 5.5 20.5584 6.08579 21.1442C6.67157 21.73 7.61438 21.73 9.5 21.73H15.5C17.3856 21.73 18.3284 21.73 18.9142 21.1442C19.5 20.5584 19.5 19.6156 19.5 17.73V9.55841C19.5 9.14966 19.5 8.94528 19.4239 8.76151C19.3478 8.57774 19.2032 8.43322 18.9142 8.14419L15.0858 4.31577C14.7968 4.02674 14.6522 3.88222 14.4685 3.8061C14.2847 3.72998 14.0803 3.72998 13.6716 3.72998Z" stroke="#33363F"/>
<path d="M13.5 3.72998V7.72998C13.5 8.67279 13.5 9.14419 13.7929 9.43709C14.0858 9.72998 14.5572 9.72998 15.5 9.72998H19.5" stroke="#33363F"/>
</svg>
