<svg width="93" height="94" viewBox="0 0 93 94" fill="none" xmlns="http://www.w3.org/2000/svg">
<path d="M56.1875 39.3906C60.5007 41.5959 63.9636 45.2253 65.9531 49.6582C66.2733 50.3715 66.5 50.8774 66.6748 51.2451C66.7612 51.4267 66.8263 51.556 66.876 51.6484C66.9282 51.7456 66.9457 51.7694 66.9346 51.7539C67.2038 52.1306 67.346 52.2452 67.4287 52.2988C67.5115 52.3524 67.6746 52.4349 68.1289 52.5264C68.2666 52.5541 68.5527 52.5645 69.75 52.5645C77.2404 52.5645 83.3125 58.6366 83.3125 66.127L83.3076 66.4766C83.1221 73.8053 77.1234 79.6895 69.75 79.6895H23.2246L22.9248 79.6855H22.9131L22.9014 79.6846C15.6863 79.5019 9.87145 73.6867 9.69141 66.4717L9.6875 66.127C9.6875 58.6366 15.7596 52.5645 23.25 52.5645C24.4473 52.5645 24.7334 52.5541 24.8711 52.5264C25.3254 52.4349 25.4885 52.3524 25.5713 52.2988C25.654 52.2452 25.7962 52.1306 26.0654 51.7539C26.0543 51.7694 26.0718 51.7456 26.124 51.6484C26.1737 51.556 26.2388 51.4267 26.3252 51.2451C26.5 50.8774 26.7267 50.3715 27.0469 49.6582C29.0364 45.2253 32.4993 41.5959 36.8125 39.3906V43.877C34.1044 45.6899 31.9313 48.2411 30.583 51.2451C30.2707 51.941 30.0227 52.4927 29.8252 52.9082C29.6428 53.2919 29.4422 53.6929 29.2178 54.0068C28.8024 54.588 28.3279 55.1302 27.6768 55.5518C27.0254 55.9733 26.3362 56.1842 25.6357 56.3252C25.0164 56.4498 24.2189 56.4395 23.25 56.4395C17.8997 56.4395 13.5625 60.7767 13.5625 66.127L13.5752 66.6182C13.8267 71.6511 17.919 75.6728 22.9805 75.8105L23.2754 75.8145H69.75L70.248 75.8018C75.3668 75.5425 79.4374 71.3101 79.4375 66.127C79.4375 60.7767 75.1003 56.4395 69.75 56.4395C68.7811 56.4395 67.9836 56.4498 67.3643 56.3252C66.6638 56.1842 65.9746 55.9733 65.3232 55.5518C64.6721 55.1302 64.1976 54.588 63.7822 54.0068C63.5578 53.6929 63.3572 53.2919 63.1748 52.9082C62.9773 52.4927 62.7293 51.941 62.417 51.2451C61.0687 48.2411 58.8956 45.6899 56.1875 43.877V39.3906Z" fill="#999999"/>
<path d="M46.5 11.875L45.13 10.505L46.5 9.13496L47.87 10.505L46.5 11.875ZM48.4375 50.625C48.4375 51.6951 47.5701 52.5625 46.5 52.5625C45.4299 52.5625 44.5625 51.6951 44.5625 50.625L48.4375 50.625ZM31 27.375L29.63 26.005L45.13 10.505L46.5 11.875L47.87 13.245L32.37 28.745L31 27.375ZM46.5 11.875L47.87 10.505L63.37 26.005L62 27.375L60.63 28.745L45.13 13.245L46.5 11.875ZM46.5 11.875L48.4375 11.875L48.4375 50.625L46.5 50.625L44.5625 50.625L44.5625 11.875L46.5 11.875Z" fill="#999999"/>
</svg>
