<svg width="21" height="21" viewBox="0 0 21 21" fill="none" xmlns="http://www.w3.org/2000/svg">
<path d="M9.38099 3.57178H3.80956C3.15284 3.57178 2.52301 3.83266 2.05863 4.29704C1.59426 4.76141 1.33337 5.39124 1.33337 6.04797V17.1908C1.33337 17.8476 1.59426 18.4774 2.05863 18.9418C2.52301 19.4061 3.15284 19.667 3.80956 19.667H16.1905C16.8472 19.667 17.4771 19.4061 17.9414 18.9418C18.4058 18.4774 18.6667 17.8476 18.6667 17.1908V11.6194" stroke="#2D7EAC" stroke-width="1.7" stroke-linecap="round" stroke-linejoin="round"/>
<path d="M16.1905 4.80963L17.3704 6.04773M18.6667 2.29259C18.9974 2.63357 19.1805 3.09099 19.1766 3.56595C19.1727 4.04091 18.9819 4.49523 18.6457 4.83068L10.0001 13.4763L6.28577 14.7144L7.52386 11.0001L16.1744 2.27649C16.4787 1.97029 16.8856 1.78766 17.3166 1.76388C17.7476 1.7401 18.1721 1.87685 18.5082 2.14773L18.6667 2.29259Z" stroke="#2D7EAC" stroke-width="1.7" stroke-linecap="round" stroke-linejoin="round"/>
</svg>
