<svg width="10" height="10" viewBox="0 0 10 10" fill="none" xmlns="http://www.w3.org/2000/svg">
<path d="M5 9.5C4.05334 9.5 3.18667 8.9 2.56 7.81333L0.780003 4.72667C0.14667 3.64 0.0666695 2.59333 0.540003 1.77333C1.01334 0.953333 1.96667 0.5 3.22 0.5H6.78C8.03334 0.5 8.98667 0.953333 9.46 1.77333C9.93334 2.59333 9.84667 3.64667 9.22 4.73333L7.44 7.82C6.81334 8.9 5.94667 9.5 5 9.5ZM3.22 1.5C2.33334 1.5 1.69334 1.77333 1.40667 2.27333C1.11334 2.77333 1.2 3.46667 1.64 4.22667L3.42 7.31333C3.86 8.08 4.42 8.5 4.99334 8.5C5.56667 8.5 6.12667 8.08 6.56667 7.31333L8.34667 4.22667C8.78667 3.46 8.87334 2.76667 8.58667 2.26667C8.3 1.76667 7.65334 1.49333 6.77334 1.49333H3.22V1.5Z" fill="#292D32"/>
</svg>
